# xmcd
#
# Track frame offsets:
#	150
#	31570
#	61757
#	109999
#	138251
#	165849
#	223437
#	255669
# Disc length: 4226 seconds
# Revision: 2
# Processed by: cddbd v1.5.1PL0 Copyright (c) Steve Scherf et al.
#
# Submitted via: libkcddb 0.10
#
DISCID=66108008
DTITLE=Steve Coleman - On the Rising of the 64 Paths
DYEAR=2002
DGENRE=Jazz
TTITLE0=64 Path Bindings
TTITLE1=Mist and Counterpoise
TTITLE2=Call for Transformation
TTITLE3=The Movement in Self
TTITLE4=Dizzy Atmosphere
TTITLE5=Eight Base Probing
TTITLE6=Dizzy Atmosphere (alternate take)
TTITLE7=Fire Revisited
EXTD=
EXTT0=
EXTT1=
EXTT2=
EXTT3=
EXTT4=
EXTT5=
EXTT6=
EXTT7=
PLAYORDER=
